<svg width="348" height="372" viewBox="0 0 348 372" fill="none" xmlns="http://www.w3.org/2000/svg">
<path d="M171.52 0.599779C178.038 0.575639 184 2.41027 189.48 5.95884C197.953 11.4386 202.805 19.2599 204.423 29.0849C205.702 36.9545 204.012 44.3172 199.909 51.1488C198.267 53.9007 196.215 56.2906 193.946 58.5356C184.845 67.588 175.769 76.6647 166.716 85.7413C163.795 88.6622 160.971 91.6797 158.05 94.6248C155.419 97.2801 152.812 99.9355 150.132 102.543C147.766 104.836 144.218 104.112 143.011 101.143C142.359 99.5252 143.035 98.1733 144.049 97.0629C145.908 95.0593 147.887 93.1764 149.794 91.2452C150.832 90.183 151.798 89.0484 152.86 88.0104C154.163 86.7069 155.563 85.4757 156.867 84.1722C159.498 81.5651 162.105 78.958 164.688 76.3267C165.388 75.6025 166.064 74.8542 166.668 74.0575C167.827 72.5609 167.585 70.4848 166.137 69.1571C164.906 68.0226 162.733 68.0708 161.405 69.3261C159.691 70.9676 158.05 72.6574 156.384 74.3231C153.27 77.4371 150.132 80.5753 147.018 83.6894C144.628 86.0792 142.262 88.4691 139.848 90.8348C138.521 92.1383 137.048 93.0798 134.996 92.5487C131.81 91.7038 130.82 88.2518 133.162 85.8861C140.404 78.62 147.67 71.378 154.912 64.1119C156.022 63.0015 156.722 61.7703 156.312 60.1288C155.829 58.2218 153.946 56.9906 152.063 57.6183C151.025 57.9562 150.011 58.608 149.215 59.3322C147.042 61.3599 144.99 63.5084 142.914 65.6327C142.504 66.0672 142.142 66.55 141.731 66.9845C137.241 71.4746 132.775 75.9646 128.285 80.4305C126.402 82.3134 123.868 82.3858 122.178 80.6477C120.609 79.0545 120.561 76.6405 122.081 74.999C122.419 74.6369 122.757 74.3231 123.095 73.961C130.217 66.8397 137.314 59.7426 144.435 52.6213C145.473 51.6074 145.932 50.4246 145.521 49.0245C145.111 47.6485 144.097 46.8036 142.697 46.4898C141.321 46.2001 140.186 46.8036 139.245 47.745C136.614 50.3521 134.007 52.9834 131.399 55.5905C126.74 60.2495 122.081 64.9327 117.398 69.5917C115.95 71.0401 114.164 71.4022 112.45 70.6055C110.856 69.8813 110.036 68.3605 110.229 66.3328C110.277 65.8017 110.494 65.1982 110.832 64.812C112.908 62.6394 115.057 60.5392 117.157 58.3907C118.026 57.4976 118.823 56.532 119.692 55.6629C122.299 53.0317 124.906 50.4246 127.513 47.8175C130.651 44.7275 133.838 41.6618 136.976 38.5719C137.7 37.8718 138.279 37.0511 139.004 36.351C142.407 32.9473 145.835 29.5435 149.239 26.164C150.518 24.9087 150.736 22.9775 149.746 21.6739C148.587 20.1048 146.656 19.622 145.038 20.5394C144.483 20.8532 143.976 21.2877 143.542 21.7463C139.486 25.8743 135.431 30.0022 131.375 34.1301C129.179 36.351 126.958 38.5719 124.761 40.7927C124.664 40.8893 124.616 40.9859 124.52 41.0583C123.892 41.5411 121.84 40.6479 120.778 39.465C120.03 38.6201 120.416 38.0408 121.043 37.4132C122.178 36.2786 123.337 35.144 124.447 34.0094C128.213 30.1712 131.955 26.3088 135.745 22.4947C139.873 18.3185 143.952 14.1181 148.201 10.0626C153.608 4.89668 159.981 1.6378 167.513 0.817038C168.189 0.744619 168.865 0.648059 169.541 0.599779C170.216 0.575639 170.868 0.599779 171.52 0.599779Z" fill="#F4000A"/>
<path d="M118.75 46.9725C113.922 52.235 108.442 56.7009 104.025 62.3255C104.025 62.3255 103.88 62.3255 103.807 62.2531C99.4139 58.101 95.0688 53.9731 92.4375 48.3485C88.1647 39.2477 87.9716 30.0263 91.834 20.829C94.1756 15.2527 97.7966 10.5695 102.769 7.02096C109.408 2.28954 116.819 0.0203838 125.002 0.648022C130.579 1.0584 135.745 2.84475 140.404 6.00708C140.669 6.17606 140.886 6.41746 141.273 6.73128C140.886 7.18994 140.524 7.6486 140.114 8.05898C131.955 16.2183 123.868 24.45 115.612 32.5127C110.711 37.2924 113.439 43.4722 117.326 45.9828C117.76 46.2725 118.195 46.5863 118.75 46.9725Z" fill="#F4000A"/>
<path d="M43.1144 204.821C39.6584 204.821 36.5224 203.957 33.7064 202.229C30.8904 200.501 28.6184 198.197 26.8904 195.317C25.2264 192.373 24.3944 189.109 24.3944 185.525V155.093C24.3944 151.637 25.2264 148.469 26.8904 145.589C28.6184 142.645 30.8904 140.309 33.7064 138.581C36.5864 136.853 39.7224 135.989 43.1144 135.989C46.6344 135.989 49.8024 136.853 52.6184 138.581C55.4984 140.245 57.7704 142.517 59.4344 145.397C61.0984 148.277 61.9304 151.509 61.9304 155.093V159.509C61.9304 159.765 61.7704 159.893 61.4504 159.893H50.6984C50.4424 159.893 50.3144 159.765 50.3144 159.509V155.861C50.3144 153.429 49.6104 151.413 48.2024 149.813C46.8584 148.213 45.1624 147.413 43.1144 147.413C41.2584 147.413 39.5944 148.181 38.1224 149.717C36.7144 151.253 36.0104 153.045 36.0104 155.093V185.525C36.0104 187.637 36.7144 189.461 38.1224 190.997C39.5304 192.469 41.1944 193.205 43.1144 193.205C45.1624 193.205 46.8584 192.469 48.2024 190.997C49.6104 189.525 50.3144 187.701 50.3144 185.525V180.821H43.5944C43.2744 180.821 43.1144 180.661 43.1144 180.341V169.589C43.1144 169.269 43.2744 169.109 43.5944 169.109H61.5464C61.8024 169.109 61.9304 169.269 61.9304 169.589V185.525C61.9304 189.109 61.0664 192.373 59.3384 195.317C57.6744 198.197 55.4344 200.501 52.6184 202.229C49.8024 203.957 46.6344 204.821 43.1144 204.821ZM97.9492 203.861C97.6932 203.861 97.5652 203.701 97.5652 203.381L97.6612 137.429C97.6612 137.173 97.8212 137.045 98.1412 137.045H108.797C109.117 137.045 109.277 137.173 109.277 137.429L109.181 163.541H123.581V137.429C123.581 137.173 123.709 137.045 123.965 137.045H134.621C134.941 137.045 135.101 137.173 135.101 137.429L135.293 203.381C135.293 203.701 135.133 203.861 134.813 203.861H124.061C123.741 203.861 123.581 203.701 123.581 203.381V175.157H109.181V203.381C109.181 203.701 109.053 203.861 108.797 203.861H97.9492ZM172.312 203.861C172.056 203.861 171.928 203.701 171.928 203.381L172.12 137.525C172.12 137.205 172.248 137.045 172.504 137.045H183.256C183.512 137.045 183.64 137.205 183.64 137.525V160.277L198.712 137.429C198.904 137.173 199.128 137.045 199.384 137.045H210.424C210.68 137.045 210.744 137.173 210.616 137.429L194.008 163.925L212.632 203.477C212.76 203.733 212.6 203.861 212.152 203.861H200.44C200.12 203.861 199.928 203.733 199.864 203.477L186.904 175.253L183.544 180.533V203.381C183.544 203.701 183.416 203.861 183.16 203.861H172.312ZM245.27 203.861C244.95 203.861 244.79 203.701 244.79 203.381L244.886 137.429C244.886 137.173 245.014 137.045 245.27 137.045H256.022C256.278 137.045 256.406 137.173 256.406 137.429L256.502 203.381C256.502 203.701 256.374 203.861 256.118 203.861H245.27Z" fill="black"/>
<path d="M2.81624 238.091C2.78024 238.091 2.76224 238.067 2.76224 238.019L2.78024 232.907L0.368241 225.635C0.356241 225.587 0.374241 225.563 0.422241 225.563H2.42024C2.48024 225.563 2.51624 225.587 2.52824 225.635L3.86024 230.477L5.21024 225.635C5.22224 225.587 5.25224 225.563 5.30024 225.563H7.31624C7.36424 225.563 7.38224 225.587 7.37024 225.635L4.94024 232.835L4.95824 238.019C4.95824 238.067 4.93424 238.091 4.88624 238.091H2.81624ZM16.4992 238.271C15.8512 238.271 15.2572 238.109 14.7172 237.785C14.1892 237.449 13.7632 237.011 13.4392 236.471C13.1152 235.919 12.9532 235.313 12.9532 234.653L12.9712 228.947C12.9712 228.287 13.1272 227.687 13.4392 227.147C13.7632 226.607 14.1952 226.175 14.7352 225.851C15.2752 225.527 15.8632 225.365 16.4992 225.365C17.1472 225.365 17.7352 225.527 18.2632 225.851C18.7912 226.175 19.2112 226.607 19.5232 227.147C19.8472 227.687 20.0092 228.287 20.0092 228.947L20.0272 234.653C20.0272 235.313 19.8652 235.919 19.5412 236.471C19.2292 237.011 18.8032 237.449 18.2632 237.785C17.7352 238.109 17.1472 238.271 16.4992 238.271ZM16.4992 236.093C16.8592 236.093 17.1712 235.949 17.4352 235.661C17.7112 235.361 17.8492 235.025 17.8492 234.653L17.8312 228.947C17.8312 228.551 17.7052 228.215 17.4532 227.939C17.2012 227.663 16.8832 227.525 16.4992 227.525C16.1272 227.525 15.8092 227.663 15.5452 227.939C15.2812 228.203 15.1492 228.539 15.1492 228.947V234.653C15.1492 235.049 15.2812 235.391 15.5452 235.679C15.8092 235.955 16.1272 236.093 16.4992 236.093ZM30.2132 238.271C29.5772 238.271 28.9892 238.109 28.4492 237.785C27.9092 237.449 27.4772 237.005 27.1532 236.453C26.8412 235.901 26.6852 235.295 26.6852 234.635L26.7212 225.635C26.7212 225.587 26.7452 225.563 26.7932 225.563H28.8092C28.8572 225.563 28.8812 225.587 28.8812 225.635V234.635C28.8812 235.043 29.0072 235.391 29.2592 235.679C29.5232 235.955 29.8412 236.093 30.2132 236.093C30.5972 236.093 30.9152 235.955 31.1672 235.679C31.4312 235.391 31.5632 235.043 31.5632 234.635V225.635C31.5632 225.587 31.5872 225.563 31.6352 225.563H33.6512C33.6992 225.563 33.7232 225.587 33.7232 225.635L33.7592 234.635C33.7592 235.307 33.5972 235.919 33.2732 236.471C32.9612 237.023 32.5352 237.461 31.9952 237.785C31.4672 238.109 30.8732 238.271 30.2132 238.271ZM40.6525 238.091C40.6045 238.091 40.5805 238.061 40.5805 238.001L40.6165 225.635C40.6165 225.587 40.6405 225.563 40.6885 225.563H44.3245C44.9725 225.563 45.5665 225.725 46.1065 226.049C46.6585 226.361 47.0965 226.787 47.4205 227.327C47.7445 227.855 47.9065 228.455 47.9065 229.127C47.9065 229.571 47.8405 229.973 47.7085 230.333C47.5765 230.681 47.4205 230.981 47.2405 231.233C47.0605 231.473 46.8985 231.653 46.7545 231.773C47.4025 232.493 47.7265 233.339 47.7265 234.311L47.7445 238.001C47.7445 238.061 47.7145 238.091 47.6545 238.091H45.6205C45.5725 238.091 45.5485 238.073 45.5485 238.037V234.311C45.5485 233.879 45.3925 233.507 45.0805 233.195C44.7805 232.871 44.4085 232.709 43.9645 232.709H42.7765L42.7585 238.001C42.7585 238.061 42.7345 238.091 42.6865 238.091H40.6525ZM42.7765 230.549H44.3245C44.6965 230.549 45.0265 230.411 45.3145 230.135C45.6025 229.859 45.7465 229.523 45.7465 229.127C45.7465 228.743 45.6025 228.413 45.3145 228.137C45.0385 227.861 44.7085 227.723 44.3245 227.723H42.7765V230.549ZM62.808 238.091C62.76 238.091 62.736 238.061 62.736 238.001L62.754 225.635C62.754 225.587 62.784 225.563 62.844 225.563H64.842C64.902 225.563 64.932 225.587 64.932 225.635L64.914 230.531H67.614V225.635C67.614 225.587 67.638 225.563 67.686 225.563H69.684C69.744 225.563 69.774 225.587 69.774 225.635L69.81 238.001C69.81 238.061 69.78 238.091 69.72 238.091H67.704C67.644 238.091 67.614 238.061 67.614 238.001V232.709H64.914V238.001C64.914 238.061 64.89 238.091 64.842 238.091H62.808ZM76.751 238.091C76.703 238.091 76.679 238.061 76.679 238.001L76.697 225.635C76.697 225.587 76.721 225.563 76.769 225.563H82.547C82.595 225.563 82.619 225.593 82.619 225.653V227.669C82.619 227.717 82.595 227.741 82.547 227.741H78.857V230.549H82.547C82.595 230.549 82.619 230.573 82.619 230.621L82.637 232.655C82.637 232.703 82.613 232.727 82.565 232.727H78.857V235.877H82.565C82.613 235.877 82.637 235.907 82.637 235.967V238.019C82.637 238.067 82.613 238.091 82.565 238.091H76.751ZM88.8498 238.001L91.0818 225.635C91.0938 225.587 91.1238 225.563 91.1718 225.563H93.7818C93.8298 225.563 93.8598 225.587 93.8718 225.635L96.0138 238.001C96.0258 238.061 96.0018 238.091 95.9418 238.091H93.9438C93.8958 238.091 93.8658 238.061 93.8538 238.001L93.6558 236.687H91.2078L91.0098 238.001C90.9978 238.061 90.9678 238.091 90.9198 238.091H88.9218C88.8738 238.091 88.8498 238.061 88.8498 238.001ZM91.5678 234.761H93.2958L92.5578 229.703L92.4498 229.037L92.3778 229.703L91.5678 234.761ZM102.615 238.091C102.567 238.091 102.543 238.061 102.543 238.001L102.561 225.653C102.561 225.593 102.591 225.563 102.651 225.563H104.649C104.709 225.563 104.739 225.593 104.739 225.653L104.721 235.877H108.429C108.489 235.877 108.519 235.907 108.519 235.967V238.001C108.519 238.061 108.489 238.091 108.429 238.091H102.615ZM115.105 238.091C115.057 238.091 115.033 238.061 115.033 238.001V227.741H112.693C112.633 227.741 112.603 227.711 112.603 227.651L112.621 225.635C112.621 225.587 112.645 225.563 112.693 225.563H119.533C119.593 225.563 119.623 225.587 119.623 225.635V227.651C119.623 227.711 119.599 227.741 119.551 227.741H117.193L117.211 238.001C117.211 238.061 117.187 238.091 117.139 238.091H115.105ZM125.984 238.091C125.936 238.091 125.912 238.061 125.912 238.001L125.93 225.635C125.93 225.587 125.96 225.563 126.02 225.563H128.018C128.078 225.563 128.108 225.587 128.108 225.635L128.09 230.531H130.79V225.635C130.79 225.587 130.814 225.563 130.862 225.563H132.86C132.92 225.563 132.95 225.587 132.95 225.635L132.986 238.001C132.986 238.061 132.956 238.091 132.896 238.091H130.88C130.82 238.091 130.79 238.061 130.79 238.001V232.709H128.09V238.001C128.09 238.061 128.066 238.091 128.018 238.091H125.984ZM148.017 238.091C147.957 238.091 147.927 238.061 147.927 238.001L147.945 225.635C147.945 225.587 147.969 225.563 148.017 225.563H150.033C150.081 225.563 150.105 225.587 150.105 225.635L150.123 238.001C150.123 238.061 150.099 238.091 150.051 238.091H148.017ZM157.268 238.091C157.172 238.091 157.124 238.049 157.124 237.965L157.106 225.707C157.106 225.611 157.154 225.563 157.25 225.563H158.87L161.912 232.655L161.822 225.707C161.822 225.611 161.876 225.563 161.984 225.563H163.766C163.838 225.563 163.874 225.611 163.874 225.707L163.892 237.983C163.892 238.055 163.862 238.091 163.802 238.091H162.218L159.104 231.467L159.23 237.947C159.23 238.043 159.176 238.091 159.068 238.091H157.268ZM180.601 238.091C180.565 238.091 180.547 238.067 180.547 238.019L180.565 232.907L178.153 225.635C178.141 225.587 178.159 225.563 178.207 225.563H180.205C180.265 225.563 180.301 225.587 180.313 225.635L181.645 230.477L182.995 225.635C183.007 225.587 183.037 225.563 183.085 225.563H185.101C185.149 225.563 185.167 225.587 185.155 225.635L182.725 232.835L182.743 238.019C182.743 238.067 182.719 238.091 182.671 238.091H180.601ZM194.284 238.271C193.636 238.271 193.042 238.109 192.502 237.785C191.974 237.449 191.548 237.011 191.224 236.471C190.9 235.919 190.738 235.313 190.738 234.653L190.756 228.947C190.756 228.287 190.912 227.687 191.224 227.147C191.548 226.607 191.98 226.175 192.52 225.851C193.06 225.527 193.648 225.365 194.284 225.365C194.932 225.365 195.52 225.527 196.048 225.851C196.576 226.175 196.996 226.607 197.308 227.147C197.632 227.687 197.794 228.287 197.794 228.947L197.812 234.653C197.812 235.313 197.65 235.919 197.326 236.471C197.014 237.011 196.588 237.449 196.048 237.785C195.52 238.109 194.932 238.271 194.284 238.271ZM194.284 236.093C194.644 236.093 194.956 235.949 195.22 235.661C195.496 235.361 195.634 235.025 195.634 234.653L195.616 228.947C195.616 228.551 195.49 228.215 195.238 227.939C194.986 227.663 194.668 227.525 194.284 227.525C193.912 227.525 193.594 227.663 193.33 227.939C193.066 228.203 192.934 228.539 192.934 228.947V234.653C192.934 235.049 193.066 235.391 193.33 235.679C193.594 235.955 193.912 236.093 194.284 236.093ZM207.998 238.271C207.362 238.271 206.774 238.109 206.234 237.785C205.694 237.449 205.262 237.005 204.938 236.453C204.626 235.901 204.47 235.295 204.47 234.635L204.506 225.635C204.506 225.587 204.53 225.563 204.578 225.563H206.594C206.642 225.563 206.666 225.587 206.666 225.635V234.635C206.666 235.043 206.792 235.391 207.044 235.679C207.308 235.955 207.626 236.093 207.998 236.093C208.382 236.093 208.7 235.955 208.952 235.679C209.216 235.391 209.348 235.043 209.348 234.635V225.635C209.348 225.587 209.372 225.563 209.42 225.563H211.436C211.484 225.563 211.508 225.587 211.508 225.635L211.544 234.635C211.544 235.307 211.382 235.919 211.058 236.471C210.746 237.023 210.32 237.461 209.78 237.785C209.252 238.109 208.658 238.271 207.998 238.271ZM218.438 238.091C218.39 238.091 218.366 238.061 218.366 238.001L218.402 225.635C218.402 225.587 218.426 225.563 218.474 225.563H222.11C222.758 225.563 223.352 225.725 223.892 226.049C224.444 226.361 224.882 226.787 225.206 227.327C225.53 227.855 225.692 228.455 225.692 229.127C225.692 229.571 225.626 229.973 225.494 230.333C225.362 230.681 225.206 230.981 225.026 231.233C224.846 231.473 224.684 231.653 224.54 231.773C225.188 232.493 225.512 233.339 225.512 234.311L225.53 238.001C225.53 238.061 225.5 238.091 225.44 238.091H223.406C223.358 238.091 223.334 238.073 223.334 238.037V234.311C223.334 233.879 223.178 233.507 222.866 233.195C222.566 232.871 222.194 232.709 221.75 232.709H220.562L220.544 238.001C220.544 238.061 220.52 238.091 220.472 238.091H218.438ZM220.562 230.549H222.11C222.482 230.549 222.812 230.411 223.1 230.135C223.388 229.859 223.532 229.523 223.532 229.127C223.532 228.743 223.388 228.413 223.1 228.137C222.824 227.861 222.494 227.723 222.11 227.723H220.562V230.549ZM240.593 238.091C240.545 238.091 240.521 238.061 240.521 238.001L240.539 225.635C240.539 225.587 240.569 225.563 240.629 225.563H242.627C242.687 225.563 242.717 225.587 242.717 225.635L242.699 230.531H245.399V225.635C245.399 225.587 245.423 225.563 245.471 225.563H247.469C247.529 225.563 247.559 225.587 247.559 225.635L247.595 238.001C247.595 238.061 247.565 238.091 247.505 238.091H245.489C245.429 238.091 245.399 238.061 245.399 238.001V232.709H242.699V238.001C242.699 238.061 242.675 238.091 242.627 238.091H240.593ZM253.852 238.001L256.084 225.635C256.096 225.587 256.126 225.563 256.174 225.563H258.784C258.832 225.563 258.862 225.587 258.874 225.635L261.016 238.001C261.028 238.061 261.004 238.091 260.944 238.091H258.946C258.898 238.091 258.868 238.061 258.856 238.001L258.658 236.687H256.21L256.012 238.001C256 238.061 255.97 238.091 255.922 238.091H253.924C253.876 238.091 253.852 238.061 253.852 238.001ZM256.57 234.761H258.298L257.56 229.703L257.452 229.037L257.38 229.703L256.57 234.761ZM267.708 238.091C267.612 238.091 267.564 238.049 267.564 237.965L267.546 225.707C267.546 225.611 267.594 225.563 267.69 225.563H269.31L272.352 232.655L272.262 225.707C272.262 225.611 272.316 225.563 272.424 225.563H274.206C274.278 225.563 274.314 225.611 274.314 225.707L274.332 237.983C274.332 238.055 274.302 238.091 274.242 238.091H272.658L269.544 231.467L269.67 237.947C269.67 238.043 269.616 238.091 269.508 238.091H267.708ZM281.385 238.091C281.325 238.091 281.295 238.061 281.295 238.001L281.331 225.635C281.331 225.587 281.355 225.563 281.403 225.563L284.769 225.545C285.429 225.533 286.029 225.689 286.569 226.013C287.121 226.337 287.559 226.775 287.883 227.327C288.207 227.867 288.369 228.467 288.369 229.127V234.293C288.369 234.989 288.201 235.625 287.865 236.201C287.529 236.765 287.079 237.215 286.515 237.551C285.951 237.887 285.315 238.061 284.607 238.073L281.385 238.091ZM283.491 235.877H284.607C285.051 235.877 285.423 235.721 285.723 235.409C286.035 235.097 286.191 234.725 286.191 234.293V229.109C286.191 228.725 286.047 228.395 285.759 228.119C285.483 227.831 285.153 227.693 284.769 227.705L283.509 227.723L283.491 235.877ZM298.246 238.271C297.598 238.271 297.004 238.109 296.464 237.785C295.936 237.449 295.51 237.011 295.186 236.471C294.874 235.919 294.718 235.313 294.718 234.653V233.825C294.718 233.765 294.748 233.735 294.808 233.735H296.824C296.872 233.735 296.896 233.765 296.896 233.825V234.653C296.896 235.049 297.028 235.391 297.292 235.679C297.556 235.955 297.874 236.093 298.246 236.093C298.618 236.093 298.936 235.949 299.2 235.661C299.464 235.373 299.596 235.037 299.596 234.653C299.596 234.209 299.308 233.825 298.732 233.501C298.54 233.393 298.24 233.225 297.832 232.997C297.424 232.769 297.04 232.553 296.68 232.349C296.02 231.965 295.528 231.485 295.204 230.909C294.892 230.321 294.736 229.661 294.736 228.929C294.736 228.257 294.898 227.657 295.222 227.129C295.546 226.589 295.972 226.163 296.5 225.851C297.04 225.539 297.622 225.383 298.246 225.383C298.882 225.383 299.464 225.545 299.992 225.869C300.532 226.181 300.958 226.607 301.27 227.147C301.594 227.675 301.756 228.269 301.756 228.929V230.405C301.756 230.453 301.732 230.477 301.684 230.477H299.668C299.62 230.477 299.596 230.453 299.596 230.405L299.578 228.929C299.578 228.509 299.446 228.167 299.182 227.903C298.918 227.639 298.606 227.507 298.246 227.507C297.874 227.507 297.556 227.651 297.292 227.939C297.028 228.215 296.896 228.545 296.896 228.929C296.896 229.325 296.98 229.655 297.148 229.919C297.316 230.183 297.622 230.435 298.066 230.675C298.126 230.711 298.24 230.777 298.408 230.873C298.588 230.957 298.78 231.059 298.984 231.179C299.188 231.287 299.368 231.383 299.524 231.467C299.692 231.551 299.794 231.605 299.83 231.629C300.43 231.965 300.904 232.379 301.252 232.871C301.6 233.351 301.774 233.945 301.774 234.653C301.774 235.337 301.612 235.955 301.288 236.507C300.976 237.047 300.55 237.479 300.01 237.803C299.482 238.115 298.894 238.271 298.246 238.271Z" fill="#5C5C5C"/>
</svg>
