<svg width="87" height="31" viewBox="0 0 87 31" fill="none" xmlns="http://www.w3.org/2000/svg">
<path d="M19.4146 3.842C20.903 3.83649 22.2647 4.25545 23.516 5.06581C25.451 6.31718 26.559 8.10328 26.9284 10.3469C27.2205 12.1441 26.8347 13.8254 25.8975 15.3855C25.5226 16.0139 25.0541 16.5597 24.5359 17.0724C22.4576 19.1396 20.3849 21.2124 18.3176 23.2851C17.6506 23.9522 17.0056 24.6412 16.3386 25.3138C15.7377 25.9202 15.1423 26.5266 14.5304 27.1219C13.9902 27.6456 13.1798 27.4803 12.9042 26.8022C12.7553 26.4329 12.9097 26.1241 13.1412 25.8706C13.5657 25.413 14.0177 24.983 14.4532 24.542C14.6903 24.2995 14.9108 24.0404 15.1533 23.8033C15.451 23.5056 15.7708 23.2245 16.0684 22.9268C16.6693 22.3314 17.2647 21.7361 17.8545 21.1352C18.0144 20.9698 18.1688 20.7989 18.3066 20.617C18.5712 20.2752 18.5161 19.8011 18.1853 19.4979C17.9042 19.2388 17.408 19.2499 17.1048 19.5365C16.7134 19.9114 16.3386 20.2973 15.9582 20.6776C15.2471 21.3888 14.5304 22.1054 13.8193 22.8166C13.2735 23.3623 12.7333 23.9081 12.182 24.4483C11.8788 24.746 11.5426 24.961 11.074 24.8397C10.3463 24.6468 10.1203 23.8584 10.655 23.3182C12.3088 21.6589 13.9681 20.0051 15.6219 18.3458C15.8755 18.0922 16.0354 17.8111 15.9417 17.4362C15.8314 17.0007 15.4014 16.7196 14.9714 16.8629C14.7344 16.9401 14.5029 17.0889 14.3209 17.2543C13.8248 17.7174 13.3562 18.208 12.8821 18.6931C12.7884 18.7923 12.7057 18.9026 12.612 19.0018C11.5867 20.0272 10.5668 21.0525 9.54147 22.0723C9.11148 22.5023 8.53265 22.5189 8.14676 22.122C7.78844 21.7581 7.77742 21.2069 8.12471 20.832C8.20189 20.7493 8.27907 20.6776 8.35625 20.595C9.98248 18.9687 11.6032 17.348 13.2294 15.7218C13.4665 15.4902 13.5712 15.2201 13.4775 14.9004C13.3838 14.5862 13.1523 14.3932 12.8325 14.3216C12.5183 14.2554 12.2592 14.3932 12.0442 14.6082C11.4433 15.2036 10.848 15.8045 10.2526 16.3998C9.18866 17.4638 8.12471 18.5332 7.05526 19.5972C6.7245 19.9279 6.31656 20.0106 5.92516 19.8287C5.56133 19.6633 5.3739 19.316 5.418 18.853C5.42903 18.7317 5.47864 18.5939 5.55582 18.5057C6.0299 18.0095 6.52053 17.5299 7.00013 17.0393C7.19859 16.8353 7.38051 16.6148 7.57896 16.4164C8.17433 15.8155 8.76969 15.2201 9.36506 14.6248C10.0817 13.9191 10.8094 13.219 11.526 12.5134C11.6914 12.3535 11.8237 12.1661 11.9891 12.0062C12.7664 11.229 13.5492 10.4517 14.3264 9.6799C14.6186 9.39325 14.6682 8.95223 14.4422 8.65455C14.1776 8.29623 13.7366 8.18597 13.3672 8.39546C13.2405 8.46712 13.1247 8.56635 13.0255 8.67109C12.0993 9.61375 11.1732 10.5564 10.2471 11.4991C9.74543 12.0062 9.23827 12.5134 8.73662 13.0206C8.71457 13.0426 8.70354 13.0647 8.68149 13.0812C8.53816 13.1915 8.06959 12.9875 7.82703 12.7174C7.65614 12.5244 7.74434 12.3921 7.88767 12.2488C8.14676 11.9897 8.41137 11.7306 8.66495 11.4715C9.52493 10.595 10.3794 9.71298 11.2449 8.84198C12.1875 7.88829 13.1192 6.92909 14.0894 6.00296C15.3242 4.82326 16.7796 4.07905 18.4995 3.89162C18.6539 3.87508 18.8082 3.85303 18.9626 3.842C19.1169 3.83649 19.2658 3.842 19.4146 3.842Z" fill="#F4000A"/>
<path d="M7.36397 14.4318C6.26144 15.6336 5.01007 16.6534 4.00125 17.9379C4.00125 17.9379 3.96818 17.9379 3.95164 17.9213C2.94833 16.9731 1.95606 16.0305 1.35518 14.746C0.379437 12.6678 0.335335 10.5619 1.21736 8.4616C1.75209 7.18818 2.57899 6.11872 3.71459 5.30836C5.23057 4.22788 6.92296 3.70969 8.79175 3.85302C10.0652 3.94674 11.2449 4.35468 12.3088 5.07683C12.3695 5.11542 12.4191 5.17055 12.5073 5.24221C12.4191 5.34695 12.3364 5.45169 12.2427 5.54541C10.3794 7.40868 8.53265 9.2885 6.64732 11.1297C5.52825 12.2212 6.15119 13.6325 7.03872 14.2058C7.13795 14.2719 7.23718 14.3436 7.36397 14.4318Z" fill="#F4000A"/>
<path d="M43.6364 23.8752C42.7724 23.8752 41.9884 23.6592 41.2844 23.2272C40.5804 22.7952 40.0124 22.2192 39.5804 21.4992C39.1644 20.7632 38.9564 19.9472 38.9564 19.0512V11.4432C38.9564 10.5792 39.1644 9.78724 39.5804 9.06724C40.0124 8.33124 40.5804 7.74724 41.2844 7.31524C42.0044 6.88324 42.7884 6.66724 43.6364 6.66724C44.5164 6.66724 45.3084 6.88324 46.0124 7.31524C46.7324 7.73124 47.3004 8.29924 47.7164 9.01924C48.1324 9.73924 48.3404 10.5472 48.3404 11.4432V12.5472C48.3404 12.6112 48.3004 12.6432 48.2204 12.6432H45.5324C45.4684 12.6432 45.4364 12.6112 45.4364 12.5472V11.6352C45.4364 11.0272 45.2604 10.5232 44.9084 10.1232C44.5724 9.72324 44.1484 9.52324 43.6364 9.52324C43.1724 9.52324 42.7564 9.71524 42.3884 10.0992C42.0364 10.4832 41.8604 10.9312 41.8604 11.4432V19.0512C41.8604 19.5792 42.0364 20.0352 42.3884 20.4192C42.7404 20.7872 43.1564 20.9712 43.6364 20.9712C44.1484 20.9712 44.5724 20.7872 44.9084 20.4192C45.2604 20.0512 45.4364 19.5952 45.4364 19.0512V17.8752H43.7564C43.6764 17.8752 43.6364 17.8352 43.6364 17.7552V15.0672C43.6364 14.9872 43.6764 14.9472 43.7564 14.9472H48.2444C48.3084 14.9472 48.3404 14.9872 48.3404 15.0672V19.0512C48.3404 19.9472 48.1244 20.7632 47.6924 21.4992C47.2764 22.2192 46.7164 22.7952 46.0124 23.2272C45.3084 23.6592 44.5164 23.8752 43.6364 23.8752ZM52.5451 23.6352C52.4811 23.6352 52.4491 23.5952 52.4491 23.5152L52.4731 7.02724C52.4731 6.96324 52.5131 6.93124 52.5931 6.93124H55.2571C55.3371 6.93124 55.3771 6.96324 55.3771 7.02724L55.3531 13.5552H58.9531V7.02724C58.9531 6.96324 58.9851 6.93124 59.0491 6.93124H61.7131C61.7931 6.93124 61.8331 6.96324 61.8331 7.02724L61.8811 23.5152C61.8811 23.5952 61.8411 23.6352 61.7611 23.6352H59.0731C58.9931 23.6352 58.9531 23.5952 58.9531 23.5152V16.4592H55.3531V23.5152C55.3531 23.5952 55.3211 23.6352 55.2571 23.6352H52.5451ZM66.3357 23.6352C66.2717 23.6352 66.2397 23.5952 66.2397 23.5152L66.2877 7.05124C66.2877 6.97124 66.3197 6.93124 66.3837 6.93124H69.0717C69.1357 6.93124 69.1677 6.97124 69.1677 7.05124V12.7392L72.9357 7.02724C72.9837 6.96324 73.0397 6.93124 73.1037 6.93124H75.8637C75.9277 6.93124 75.9437 6.96324 75.9117 7.02724L71.7597 13.6512L76.4157 23.5392C76.4477 23.6032 76.4077 23.6352 76.2957 23.6352H73.3677C73.2877 23.6352 73.2397 23.6032 73.2237 23.5392L69.9837 16.4832L69.1437 17.8032V23.5152C69.1437 23.5952 69.1117 23.6352 69.0477 23.6352H66.3357ZM79.7753 23.6352C79.6953 23.6352 79.6553 23.5952 79.6553 23.5152L79.6793 7.02724C79.6793 6.96324 79.7113 6.93124 79.7753 6.93124H82.4633C82.5273 6.93124 82.5593 6.96324 82.5593 7.02724L82.5833 23.5152C82.5833 23.5952 82.5513 23.6352 82.4873 23.6352H79.7753Z" fill="white"/>
</svg>
