<svg width="315" height="71" viewBox="0 0 315 71" fill="none" xmlns="http://www.w3.org/2000/svg">
<path d="M112.986 37.5449C112.986 38.4512 113.47 39.1074 114.439 39.5137C114.814 39.6387 115.173 39.7012 115.517 39.7012C116.579 39.7012 117.329 39.2793 117.767 38.4355C117.923 38.123 118.001 37.8262 118.001 37.5449C118.001 36.6387 117.517 35.998 116.548 35.623C116.204 35.498 115.861 35.4355 115.517 35.4355C114.423 35.4355 113.658 35.8574 113.22 36.7012C113.064 36.9824 112.986 37.2637 112.986 37.5449ZM104.173 40.0293C104.173 36.748 105.658 34.123 108.626 32.1543C110.876 30.6855 113.486 29.9512 116.454 29.9512C120.392 29.9512 123.626 31.1699 126.158 33.6074C128.064 35.4824 129.142 37.7168 129.392 40.3105H128.033C127.533 37.1543 125.861 34.7324 123.017 33.0449C121.048 31.8887 118.861 31.3105 116.454 31.3105C113.111 31.3105 110.548 32.2324 108.767 34.0762C107.642 35.2324 107.079 36.5449 107.079 38.0137C107.079 40.2324 108.095 41.9512 110.126 43.1699C111.501 44.0137 113.126 44.4355 115.001 44.4355C118.064 44.4355 120.22 43.6074 121.47 41.9512C122.033 41.1699 122.314 40.3105 122.314 39.373C122.314 37.9043 121.564 36.7793 120.064 35.998C119.626 35.7793 119.158 35.6074 118.658 35.4824C119.251 36.1074 119.548 36.8262 119.548 37.6387C119.548 38.9824 118.861 39.9824 117.486 40.6387C116.829 40.9512 116.173 41.1074 115.517 41.1074C114.017 41.1074 112.861 40.5605 112.048 39.4668C111.611 38.9043 111.392 38.2949 111.392 37.6387C111.392 36.1074 112.204 35.0293 113.829 34.4043C114.548 34.123 115.314 33.9824 116.126 33.9824C119.47 33.9824 121.97 35.0293 123.626 37.123C124.626 38.4355 125.126 39.9824 125.126 41.7637C125.126 44.6074 123.876 46.7637 121.376 48.2324C119.626 49.2324 117.501 49.7324 115.001 49.7324C111.283 49.7324 108.408 48.5449 106.376 46.1699C104.908 44.4512 104.173 42.4043 104.173 40.0293ZM137.004 42.1855C137.004 45.5293 138.848 47.7949 142.536 48.9824C144.067 49.4824 145.801 49.7324 147.739 49.7324C152.864 49.7324 156.52 47.9512 158.708 44.3887C159.958 42.3574 160.583 39.9512 160.583 37.1699C160.583 32.9199 159.254 29.4668 156.598 26.8105C154.286 24.498 151.473 23.3418 148.161 23.3418C143.754 23.373 140.411 24.998 138.129 28.2168H139.676C141.77 25.7168 144.598 24.4668 148.161 24.4668C151.504 24.4668 154.161 25.8262 156.129 28.5449C157.567 30.5762 158.286 32.873 158.286 35.4355C158.286 39.5918 156.442 42.3105 152.754 43.5918C151.348 44.0918 149.723 44.3418 147.879 44.3418C142.629 44.123 139.879 42.8262 139.629 40.4512C139.629 38.9199 140.583 37.873 142.489 37.3105C143.239 37.0918 144.083 36.9824 145.02 36.9824H148.864V36.4668C148.864 33.0605 147.551 30.998 144.926 30.2793C144.27 30.0918 143.583 29.998 142.864 29.998C140.708 29.998 139.254 30.6074 138.504 31.8262C138.223 32.2949 138.083 32.7793 138.083 33.2793C138.083 34.248 138.536 34.8262 139.442 35.0137C139.598 35.0449 139.739 35.0605 139.864 35.0605C140.77 35.0293 141.411 34.498 141.786 33.4668C142.161 32.4355 142.973 31.9043 144.223 31.873C145.442 31.873 146.333 32.4824 146.895 33.7012C147.145 34.2949 147.27 34.9355 147.27 35.623V35.8105H144.598C141.317 35.8105 139.051 36.873 137.801 38.998C137.27 39.9668 137.004 41.0293 137.004 42.1855ZM169.039 41.998C169.101 37.498 172.039 35.2324 177.851 35.2012H183.242C182.867 33.3887 181.992 32.2949 180.617 31.9199C180.336 31.8262 180.054 31.7793 179.773 31.7793C178.898 31.8105 178.258 32.2637 177.851 33.1387C177.414 33.9824 176.726 34.4199 175.789 34.4512C174.789 34.4512 174.164 34.0449 173.914 33.2324C173.883 33.0762 173.867 32.9199 173.867 32.7637C173.867 31.6387 174.586 30.8105 176.023 30.2793C176.711 30.0293 177.461 29.9043 178.273 29.9043C181.304 29.9043 183.336 31.2793 184.367 34.0293C184.617 34.748 184.82 35.5293 184.976 36.373H181.039C177.414 36.373 175.414 37.7949 175.039 40.6387C174.976 41.0137 174.945 41.4043 174.945 41.8105C174.945 44.2168 175.836 45.998 177.617 47.1543C178.461 47.6855 179.367 47.9512 180.336 47.9512C181.867 47.9512 183.226 47.3887 184.414 46.2637C184.664 46.0137 184.898 45.748 185.117 45.4668L186.242 46.3105C184.148 48.748 182.945 50.9355 182.633 52.873C182.57 53.3105 182.539 53.7324 182.539 54.1387C182.601 56.7949 183.867 58.4824 186.336 59.2012V60.6074C185.336 60.8262 184.461 60.9355 183.711 60.9355C181.086 60.9043 179.445 59.8418 178.789 57.748C178.633 57.2168 178.554 56.6543 178.554 56.0605C178.554 54.373 179.492 52.4043 181.367 50.1543C181.617 49.873 181.867 49.5918 182.117 49.3105C180.992 49.623 179.742 49.7793 178.367 49.7793C174.304 49.7793 171.523 48.4824 170.023 45.8887C169.367 44.7324 169.039 43.4355 169.039 41.998ZM203.604 37.5449C203.604 38.4512 204.089 39.1074 205.058 39.5137C205.433 39.6387 205.792 39.7012 206.136 39.7012C207.198 39.7012 207.948 39.2793 208.386 38.4355C208.542 38.123 208.62 37.8262 208.62 37.5449C208.62 36.6387 208.136 35.998 207.167 35.623C206.823 35.498 206.479 35.4355 206.136 35.4355C205.042 35.4355 204.276 35.8574 203.839 36.7012C203.683 36.9824 203.604 37.2637 203.604 37.5449ZM194.792 40.0293C194.792 36.748 196.276 34.123 199.245 32.1543C201.495 30.6855 204.104 29.9512 207.073 29.9512C211.011 29.9512 214.245 31.1699 216.776 33.6074C218.683 35.4824 219.761 37.7168 220.011 40.3105H218.651C218.151 37.1543 216.479 34.7324 213.636 33.0449C211.667 31.8887 209.479 31.3105 207.073 31.3105C203.729 31.3105 201.167 32.2324 199.386 34.0762C198.261 35.2324 197.698 36.5449 197.698 38.0137C197.698 40.2324 198.714 41.9512 200.745 43.1699C202.12 44.0137 203.745 44.4355 205.62 44.4355C208.683 44.4355 210.839 43.6074 212.089 41.9512C212.651 41.1699 212.933 40.3105 212.933 39.373C212.933 37.9043 212.183 36.7793 210.683 35.998C210.245 35.7793 209.776 35.6074 209.276 35.4824C209.87 36.1074 210.167 36.8262 210.167 37.6387C210.167 38.9824 209.479 39.9824 208.104 40.6387C207.448 40.9512 206.792 41.1074 206.136 41.1074C204.636 41.1074 203.479 40.5605 202.667 39.4668C202.229 38.9043 202.011 38.2949 202.011 37.6387C202.011 36.1074 202.823 35.0293 204.448 34.4043C205.167 34.123 205.933 33.9824 206.745 33.9824C210.089 33.9824 212.589 35.0293 214.245 37.123C215.245 38.4355 215.745 39.9824 215.745 41.7637C215.745 44.6074 214.495 46.7637 211.995 48.2324C210.245 49.2324 208.12 49.7324 205.62 49.7324C201.901 49.7324 199.026 48.5449 196.995 46.1699C195.526 44.4512 194.792 42.4043 194.792 40.0293ZM227.67 40.2637C227.67 43.5137 228.654 46.0605 230.623 47.9043C232.029 49.1855 233.701 49.8262 235.639 49.8262C238.264 49.8262 240.17 48.8418 241.358 46.873C241.951 45.873 242.248 44.748 242.248 43.498C242.248 41.1855 241.498 39.6543 239.998 38.9043C239.529 38.6855 239.029 38.5762 238.498 38.5762C238.092 38.6074 237.764 38.6855 237.514 38.8105C237.92 36.9355 238.967 35.623 240.654 34.873C241.436 34.5293 242.279 34.3574 243.186 34.3574C246.248 34.3574 248.233 35.7012 249.139 38.3887C249.42 39.2949 249.561 40.2793 249.561 41.3418C249.561 43.9668 248.67 45.9512 246.889 47.2949C245.733 48.1387 244.342 48.5605 242.717 48.5605C242.436 48.5605 242.061 48.5293 241.592 48.4668V49.6855C242.217 49.748 242.686 49.7793 242.998 49.7793C246.467 49.7793 249.139 48.498 251.014 45.9355C252.295 44.1543 252.936 42.1074 252.936 39.7949C252.936 36.4199 251.936 33.8105 249.936 31.9668C248.529 30.6543 246.842 29.998 244.873 29.998C241.467 29.998 238.967 31.7324 237.373 35.2012C236.623 36.8887 236.17 38.7793 236.014 40.873H237.233C237.233 40.6543 237.264 40.3574 237.326 39.9824C237.733 39.7949 238.092 39.7012 238.404 39.7012C239.342 39.8887 239.858 40.4824 239.951 41.4824C239.951 42.8574 239.123 43.748 237.467 44.1543C236.936 44.2793 236.342 44.3418 235.686 44.3418C233.467 44.3418 231.811 43.4355 230.717 41.623C230.154 40.623 229.873 39.5293 229.873 38.3418C229.873 35.9668 230.686 34.0605 232.311 32.623C233.467 31.623 234.795 31.123 236.295 31.123H236.811V29.998H236.201C233.358 29.998 231.123 31.2637 229.498 33.7949C228.279 35.6699 227.67 37.8262 227.67 40.2637ZM261.439 41.998C261.501 37.498 264.439 35.2324 270.251 35.2012H275.642C275.267 33.3887 274.392 32.2949 273.017 31.9199C272.736 31.8262 272.454 31.7793 272.173 31.7793C271.298 31.8105 270.658 32.2637 270.251 33.1387C269.814 33.9824 269.126 34.4199 268.189 34.4512C267.189 34.4512 266.564 34.0449 266.314 33.2324C266.283 33.0762 266.267 32.9199 266.267 32.7637C266.267 31.6387 266.986 30.8105 268.423 30.2793C269.111 30.0293 269.861 29.9043 270.673 29.9043C273.704 29.9043 275.736 31.2793 276.767 34.0293C277.017 34.748 277.22 35.5293 277.376 36.373H273.439C269.814 36.373 267.814 37.7949 267.439 40.6387C267.376 41.0137 267.345 41.4043 267.345 41.8105C267.345 44.2168 268.236 45.998 270.017 47.1543C270.861 47.6855 271.767 47.9512 272.736 47.9512C274.267 47.9512 275.626 47.3887 276.814 46.2637C277.064 46.0137 277.298 45.748 277.517 45.4668L278.642 46.3105C276.548 48.748 275.345 50.9355 275.033 52.873C274.97 53.3105 274.939 53.7324 274.939 54.1387C275.001 56.7949 276.267 58.4824 278.736 59.2012V60.6074C277.736 60.8262 276.861 60.9355 276.111 60.9355C273.486 60.9043 271.845 59.8418 271.189 57.748C271.033 57.2168 270.954 56.6543 270.954 56.0605C270.954 54.373 271.892 52.4043 273.767 50.1543C274.017 49.873 274.267 49.5918 274.517 49.3105C273.392 49.623 272.142 49.7793 270.767 49.7793C266.704 49.7793 263.923 48.4824 262.423 45.8887C261.767 44.7324 261.439 43.4355 261.439 41.998ZM287.098 39.9824C287.098 35.5449 289.254 32.4199 293.567 30.6074C293.661 30.5762 293.754 30.5449 293.848 30.5137C294.348 30.3262 295.067 30.0449 296.004 29.6699C299.036 28.5449 301.379 27.3887 303.036 26.2012C303.067 26.1387 303.098 26.1074 303.129 26.1074C303.723 25.6387 304.598 24.7168 305.754 23.3418C306.629 22.3105 307.458 21.7793 308.239 21.748C309.083 21.748 309.583 22.0762 309.739 22.7324C309.77 22.8262 309.786 22.9199 309.786 23.0137C309.786 24.3262 308.52 25.6855 305.989 27.0918C305.958 27.123 305.926 27.1387 305.895 27.1387C303.895 28.2637 301.645 29.1543 299.145 29.8105C299.083 29.8418 299.036 29.8574 299.004 29.8574C301.192 29.9199 303.176 30.8262 304.958 32.5762C305.083 32.7012 305.208 32.8262 305.333 32.9512C306.958 34.7949 307.77 36.9512 307.77 39.4199C307.77 42.5449 306.598 45.123 304.254 47.1543C302.223 48.873 299.817 49.7324 297.036 49.7324C293.754 49.7324 291.145 48.5605 289.208 46.2168C287.801 44.4355 287.098 42.3574 287.098 39.9824ZM289.114 38.2949C289.114 40.6074 290.114 42.3105 292.114 43.4043C293.301 44.0293 294.708 44.3418 296.333 44.3418C299.645 44.3418 302.02 43.248 303.458 41.0605C304.239 39.873 304.629 38.5137 304.629 36.9824C304.629 34.4512 303.52 32.6699 301.301 31.6387C300.208 31.1699 298.989 30.9355 297.645 30.9355C295.333 30.9355 293.286 31.7168 291.504 33.2793C289.911 34.6855 289.114 36.3574 289.114 38.2949Z" fill="#F88800"/>
<g filter="url(#filter0_d)">
<path d="M15.1829 38.6668C14.6147 38.8477 14.0465 38.8176 13.4784 38.7271C13.4484 38.2445 13.0597 38.0938 12.7307 37.8826C8.27486 34.8668 5.19464 30.6447 2.56299 26.0305C2.05461 25.1257 2.41347 25.0051 3.191 24.8543C8.87297 23.9194 14.4054 26.3622 15.3923 33.9018C13.4484 31.2177 11.5644 28.7447 8.54401 27.659C11.5046 30.8558 14.3157 34.143 15.1829 38.6668Z" fill="#107356"/>
<path d="M22.4799 38.7271C20.3865 38.7874 18.3231 38.8779 16.2297 38.6668C18.353 35.9827 21.5229 35.1383 24.5733 34.0827C22.3304 33.6002 20.3566 34.505 18.2035 35.2288C21.6725 30.705 26.4872 31.4891 29.7767 34.4145C30.4646 35.0176 29.8665 35.2589 29.4478 35.47C27.6535 36.4652 25.8293 37.37 23.8854 37.9732C23.3471 38.1239 22.749 38.1239 22.4799 38.7271Z" fill="#107356"/>
<path d="M26.7415 38.3213C31.5263 38.3213 36.2812 38.2911 41.0661 38.3514C41.9931 38.3514 42.6211 38.1102 43.2491 37.4165C47.1368 32.9833 51.1142 28.6103 55.0317 24.2072C55.7495 23.3929 56.3176 22.6691 57.3045 23.9961C57.454 23.1818 56.9457 22.7295 56.7662 22.1866C55.7195 19.2914 57.3344 16.8486 60.3847 16.7581C63.6444 16.6677 67.2928 19.9247 67.6218 23.212C67.861 25.685 66.7246 27.0722 64.1229 27.1627C63.0762 27.1929 62.508 27.6151 61.9697 28.4294C59.7866 31.6563 57.5737 34.8531 55.0915 38.4721C58.5904 38.4721 61.7305 38.4721 64.9004 38.4721C64.8705 39.0451 64.4518 39.0149 64.0332 39.0752C58.6502 39.8895 53.2374 40.553 47.7947 40.945C41.4847 41.3974 35.1448 41.3069 28.8349 41.0958C22.8539 40.9149 16.9027 40.1006 10.9815 39.0451C10.6526 38.9848 10.4432 38.834 10.4133 38.4721C12.8356 38.2006 15.2879 38.4118 17.7102 38.3514C18.2784 38.4419 18.8466 38.4721 19.4148 38.2911C19.7736 38.2911 20.1026 38.2911 20.4614 38.2911C22.5548 38.4721 24.6482 38.3816 26.7415 38.3213Z" fill="#8B242B"/>
<path d="M42.1127 26.9517C42.0828 28.3993 40.8267 29.6357 39.4212 29.5754C38.0456 29.5151 36.8793 28.3088 36.8494 26.9517C36.8494 25.5041 38.0456 24.2676 39.481 24.2676C40.9165 24.2676 42.1426 25.5041 42.1127 26.9517Z" fill="#9F700D"/>
<path d="M32.3936 23.0612C31.1076 23.0914 30.1208 22.1263 30.0909 20.8295C30.061 19.5628 31.0478 18.5073 32.3038 18.4772C33.53 18.447 34.6065 19.4724 34.6364 20.7089C34.6664 21.9755 33.6496 23.0311 32.3936 23.0612Z" fill="#FB5C04"/>
<path d="M45.2526 16.7883C45.2227 18.0248 44.2658 18.9295 43.0097 18.8692C41.8135 18.8089 40.9762 17.9343 40.9463 16.7581C40.9463 15.5518 41.9033 14.5566 43.1294 14.5867C44.3256 14.5867 45.2526 15.5518 45.2526 16.7883Z" fill="#9F700D"/>
<path d="M36.8195 11.3297C37.9259 11.3598 38.853 12.355 38.7035 13.3503C38.554 14.436 37.896 15.0693 36.7895 15.0994C35.7728 15.1296 34.8756 14.1042 34.9952 13.109C35.1747 11.963 35.8625 11.4201 36.8195 11.3297Z" fill="#FB5C04"/>
<path d="M35.743 3.79007C34.7561 3.75991 34.1281 3.27738 34.0683 2.28215C33.9786 1.19646 34.6066 0.532976 35.6234 0.502818C36.6701 0.442501 37.328 1.10598 37.328 2.16152C37.2981 3.12659 36.7299 3.69959 35.743 3.79007Z" fill="#FB5C04"/>
<path d="M40.9465 9.49C39.7802 9.42968 39.1522 8.88683 39.1522 7.8313C39.1522 6.80592 39.7503 6.23291 40.7073 6.20275C41.754 6.17259 42.382 6.80592 42.4119 7.86145C42.382 8.82652 41.754 9.33921 40.9465 9.49Z" fill="#9F700D"/>
<path d="M30.7188 8.28367C30.8085 7.43924 31.2869 6.95671 32.1542 6.98687C32.9616 7.01703 33.4401 7.49956 33.4401 8.31383C33.4401 9.21858 32.9317 9.73127 32.0645 9.73127C31.2271 9.76142 30.7487 9.21858 30.7188 8.28367Z" fill="#FC8C04"/>
<path fill-rule="evenodd" clip-rule="evenodd" d="M57.6589 59.8229C52.3911 64.2787 45.4481 66.986 37.8393 66.986C27.1484 66.986 17.7718 61.641 12.5098 53.611C12.163 53.0637 11.8326 52.5013 11.5195 51.9224C9.45607 48.0622 8.58882 43.8702 8.05053 39.5877C8.0454 39.5476 8.04104 39.5083 8.03747 39.4697C8.03396 39.3498 8.03123 39.2297 8.0293 39.1094C8.06782 38.4853 8.42006 38.1739 9.24674 38.3211C9.6355 38.3814 10.0243 38.3814 10.4429 38.3814H10.4429C10.4728 38.7433 10.6822 38.8941 11.0111 38.9544C16.9024 40.0099 22.8835 40.794 28.8645 41.0052C35.1744 41.2163 41.4844 41.3067 47.8243 40.8544C53.267 40.4623 58.6799 39.829 64.0628 38.9845C64.1133 38.9767 64.1649 38.9704 64.2164 38.9641C64.5611 38.9219 64.904 38.8799 64.93 38.3814C66.9337 38.2306 66.9336 38.2306 67.0234 40.2813C67.0533 40.975 67.0832 41.6988 66.9636 42.3924C65.9169 49.2987 62.8666 55.1192 57.693 59.7937C57.6816 59.8034 57.6702 59.8131 57.6589 59.8229Z" fill="#FC8C04"/>
</g>
<defs>
<filter id="filter0_d" x="0.32666" y="0.499023" width="69.3263" height="70.487" filterUnits="userSpaceOnUse" color-interpolation-filters="sRGB">
<feFlood flood-opacity="0" result="BackgroundImageFix"/>
<feColorMatrix in="SourceAlpha" type="matrix" values="0 0 0 0 0 0 0 0 0 0 0 0 0 0 0 0 0 0 127 0"/>
<feOffset dy="2"/>
<feGaussianBlur stdDeviation="1"/>
<feColorMatrix type="matrix" values="0 0 0 0 0 0 0 0 0 0 0 0 0 0 0 0 0 0 0.2 0"/>
<feBlend mode="multiply" in2="BackgroundImageFix" result="effect1_dropShadow"/>
<feBlend mode="normal" in="SourceGraphic" in2="effect1_dropShadow" result="shape"/>
</filter>
</defs>
</svg>
